<svg xmlns="http://www.w3.org/2000/svg" viewBox="0 0 900 600">
  <rect width="900" height="300" fill="#0038A8"/>
  <rect y="300" width="900" height="300" fill="#CE1126"/>
  <polygon fill="#fff" points="0,0 450,300 0,600"/>
  <circle cx="180" cy="300" r="72" fill="#FCD116"/>
  <g fill="#FCD116">
    <polygon points="180,228 188,252 214,252 193,268 201,292 180,276 159,292 167,268 146,252 172,252"/>
    <polygon points="252,300 244,324 218,324 239,308 231,284 252,300 273,284 265,308 286,324 260,324"/>
    <polygon points="180,372 188,348 214,348 193,332 201,308 180,324 159,308 167,332 146,348 172,348"/>
    <polygon points="108,300 116,276 142,276 121,292 129,268 108,284 87,268 95,292 74,276 100,276"/>
  </g>
</svg>
